<?xml version="1.0" standalone="no"?>
<!DOCTYPE svg PUBLIC "-//W3C//DTD SVG 1.1//EN" "http://www.w3.org/Graphics/SVG/1.1/DTD/svg11.dtd">
<svg xmlns="http://www.w3.org/2000/svg" xmlns:xlink="http://www.w3.org/1999/xlink" viewBox="0 0 500 500" width="500" id="blobSvg" height="500">
  <defs>
    <linearGradient id="gradient" x1="0%" y1="0%" x2="0%" y2="100%">
      <stop offset="0%" style="stop-color: rgb(0, 0, 0);"/>
      <stop offset="100%" style="stop-color: rgb(0, 2, 114);"/>
    </linearGradient>
  </defs>
  <path id="blob" d="M413,278Q422,306,420,339Q418,372,402.5,405Q387,438,349.5,439.5Q312,441,281,424Q250,407,225,405Q200,403,179,389.5Q158,376,110,381.5Q62,387,59.5,350Q57,313,59.5,281.5Q62,250,42,213Q22,176,66.5,162.5Q111,149,123,120.5Q135,92,161,73.5Q187,55,218.5,47.5Q250,40,278,58.5Q306,77,329,93.5Q352,110,388.5,116.5Q425,123,424,158.5Q423,194,413.5,222Q404,250,413,278Z" fill="url(#gradient)"/>
</svg>